<svg xmlns="http://www.w3.org/2000/svg" version="1.1" xmlns:xlink="http://www.w3.org/1999/xlink" xmlns:svgjs="http://svgjs.dev/svgjs" width="300" height="300" viewBox="0 0 1500 1500"><rect width="1500" height="1500" fill="#000000"></rect><g transform="matrix(0.6666666666666666,0,0,0.6666666666666666,249.39393939393938,438.58569500674764)"><svg viewBox="0 0 396 247" data-background-color="#333333" preserveAspectRatio="xMidYMid meet" height="935" width="1500" xmlns="http://www.w3.org/2000/svg" xmlns:xlink="http://www.w3.org/1999/xlink"><g id="tight-bounds" transform="matrix(1,0,0,1,0.2400000000000091,-0.09999999999999432)"><svg viewBox="0 0 395.52 247.2" height="247.2" width="395.52"><g><svg></svg></g><g><svg viewBox="0 0 395.52 247.2" height="247.2" width="395.52"><g transform="matrix(1,0,0,1,85.08941568593275,47.215199999999996)"><svg viewBox="0 0 225.34116862813448 152.7696" height="152.7696" width="225.34116862813448"><g><svg viewBox="0 0 225.34116862813448 152.7696" height="152.7696" width="225.34116862813448"><g><svg viewBox="0 0 244.43136 165.71175751856728" height="152.7696" width="225.34116862813448"><g transform="matrix(1,0,0,1,0,99.98796762361981)"><svg viewBox="0 0 244.43136 65.72378989494747" height="65.72378989494747" width="244.43136"><g id="textblocktransform"><svg viewBox="0 0 244.43136 65.72378989494747" height="65.72378989494747" width="244.43136" id="textblock"><g><svg viewBox="0 0 244.43136 65.72378989494747" height="65.72378989494747" width="244.43136"><g transform="matrix(1,0,0,1,0,0)"><svg width="244.43136" viewBox="2.71 -39.06 195.2 52.49" height="65.72378989494747" data-palette-color="#b7feae"><path d="M3.61 0L3.61 0Q3.66-0.2 3.75-0.71 3.83-1.22 3.91-1.92 3.98-2.61 4.04-3.41 4.1-4.2 4.1-4.96L4.1-4.96Q4.1-6.98 3.94-8.52 3.78-10.06 3.61-10.62L3.61-10.62Q5-10.4 6.23-10.33 7.45-10.25 8.62-10.25L8.62-10.25Q10.77-10.25 12.43-10.62L12.43-10.62Q12.43-9.55 12.94-8.58 13.45-7.62 14.37-6.91 15.28-6.2 16.56-5.79 17.85-5.37 19.41-5.37L19.41-5.37Q20.46-5.37 21.53-5.48 22.61-5.59 23.47-5.96 24.34-6.32 24.88-7.01 25.42-7.69 25.42-8.84L25.42-8.84Q25.42-9.67 24.91-10.56 24.41-11.45 23.35-12.16 22.29-12.87 20.62-13.33 18.95-13.79 16.6-13.79L16.6-13.79Q14.6-13.79 12.63-13.68 10.67-13.57 8.37-12.99L8.37-12.99Q8.33-13.72 7.85-14.6 7.37-15.48 6.63-16.25 5.88-17.02 4.92-17.54 3.96-18.07 2.95-18.07L2.95-18.07 2.71-18.07Q3-18.19 3.22-18.63 3.44-19.07 3.58-19.7 3.71-20.34 3.78-21.11 3.86-21.88 3.86-22.68L3.86-22.68Q3.86-24.71 3.65-26.32 3.44-27.93 3.05-28.61L3.05-28.61 3.22-28.61Q3.93-28.61 4.79-28.98 5.64-29.35 6.51-29.94 7.37-30.54 8.2-31.29 9.03-32.03 9.68-32.81 10.33-33.59 10.74-34.34 11.16-35.08 11.21-35.64L11.21-35.64Q11.57-35.42 12.12-35.19 12.67-34.96 13.49-34.75 14.31-34.55 15.43-34.42 16.55-34.3 18.09-34.3L18.09-34.3Q18.99-34.3 20.01-34.4 21.02-34.5 21.97-34.68 22.92-34.86 23.75-35.11 24.58-35.35 25.1-35.64L25.1-35.64Q25.29-34.89 25.76-34.09 26.22-33.3 26.86-32.74L26.86-32.74Q27.49-33.28 27.78-33.96 28.08-34.64 28.2-35.16L28.2-35.16Q28.56-34.94 29.3-34.8 30.03-34.67 31.2-34.67L31.2-34.67Q32.98-34.67 34.52-35.16L34.52-35.16Q34.47-34.96 34.4-34.4 34.33-33.84 34.25-33.11 34.18-32.37 34.13-31.54 34.08-30.71 34.08-29.96L34.08-29.96Q34.08-27.83 34.24-26.23 34.4-24.63 34.52-24.05L34.52-24.05Q33.28-24.27 32.18-24.34 31.08-24.41 29.98-24.41L29.98-24.41Q27.83-24.41 26.2-24.05L26.2-24.05Q26.2-25.17 25.68-26.17 25.17-27.17 24.26-27.93 23.34-28.69 22.06-29.11 20.78-29.54 19.21-29.54L19.21-29.54Q18.14-29.54 17.08-29.38 16.02-29.22 15.15-28.82 14.28-28.42 13.75-27.76 13.21-27.1 13.21-26.07L13.21-26.07Q13.21-25.22 13.64-24.41 14.06-23.61 15.04-22.97 16.02-22.34 17.61-21.95 19.21-21.56 21.56-21.56L21.56-21.56Q22.53-21.56 23.68-21.57 24.83-21.58 25.95-21.64 27.08-21.7 28.08-21.83 29.08-21.95 29.81-22.17L29.81-22.17Q29.88-21.44 30.42-20.51 30.96-19.58 31.77-18.76 32.59-17.94 33.62-17.4 34.64-16.85 35.67-16.85L35.67-16.85 35.91-16.85Q35.62-16.72 35.4-16.28 35.18-15.84 35.05-15.21 34.91-14.58 34.84-13.81 34.77-13.04 34.77-12.23L34.77-12.23Q34.77-11.23 34.81-10.3 34.86-9.38 34.97-8.59 35.08-7.81 35.23-7.21 35.38-6.62 35.57-6.3L35.57-6.3 35.4-6.3Q34.69-6.3 33.84-5.96 32.98-5.62 32.1-5.04 31.23-4.47 30.4-3.75 29.57-3.03 28.91-2.27 28.25-1.51 27.84-0.79 27.44-0.07 27.42 0.49L27.42 0.49Q27.05 0.27 26.5 0.07 25.95-0.12 25.13-0.28 24.32-0.44 23.19-0.52 22.07-0.61 20.53-0.61L20.53-0.61Q19.63-0.61 18.69-0.55 17.75-0.49 16.88-0.35 16.02-0.22 15.27-0.01 14.53 0.2 14.01 0.49L14.01 0.49Q13.79-0.27 13.34-0.98 12.89-1.68 12.26-2.2L12.26-2.2Q11.6-1.71 11.32-1.11 11.04-0.51 10.91 0L10.91 0Q10.72-0.1 10.29-0.21 9.86-0.32 9.33-0.4 8.79-0.49 8.18-0.55 7.57-0.61 6.98-0.61L6.98-0.61Q6.03-0.61 5.13-0.44 4.22-0.27 3.61 0ZM40.72 0L40.72 0Q40.92-0.63 40.99-1.51 41.06-2.39 41.06-3.25L41.06-3.25Q41.06-4.03 40.96-4.81 40.87-5.59 40.72-6.35L40.72-6.35Q42.09-6.35 42.98-6.47 43.87-6.59 44.41-6.9 44.94-7.2 45.15-7.76 45.36-8.33 45.36-9.2L45.36-9.2 45.36-15.99Q45.33-17.04 45.09-17.66 44.85-18.29 44.42-18.62 43.99-18.95 43.37-19.06 42.75-19.17 41.97-19.17L41.97-19.17 41.21-19.17Q41.4-19.65 41.55-20.52 41.7-21.39 41.7-22.34L41.7-22.34Q41.7-23.27 41.56-24.11 41.43-24.95 41.21-25.46L41.21-25.46Q42.11-25.34 43.43-25.27 44.75-25.2 46.21-25.2L46.21-25.2Q47.29-25.2 48.37-25.24 49.46-25.29 50.49-25.4 51.51-25.51 52.41-25.68 53.32-25.85 54.03-26.12L54.03-26.12Q53.85-25.63 53.79-25.13 53.73-24.63 53.73-24.12L53.73-24.12Q53.73-23.41 53.83-22.73 53.93-22.05 54.05-21.39L54.05-21.39Q55.12-21.73 55.82-22.35 56.52-22.97 56.94-23.68 57.37-24.39 57.6-25.11 57.83-25.83 57.98-26.37L57.98-26.37Q58.3-26.17 58.95-26.01 59.59-25.85 60.43-25.74 61.28-25.63 62.23-25.57 63.18-25.51 64.08-25.51L64.08-25.51Q64.89-25.51 65.72-25.56 66.55-25.61 67.28-25.72 68.02-25.83 68.6-25.99 69.19-26.15 69.48-26.37L69.48-26.37Q70.26-24.29 71.45-22.85 72.63-21.41 74.61-20.83L74.61-20.83Q74.22-20.34 73.92-19.78 73.63-19.21 73.42-18.49 73.22-17.77 73.12-16.85 73.02-15.92 73.02-14.7L73.02-14.7 73.02-9.2Q73.02-8.33 73.28-7.76 73.53-7.2 74.06-6.9 74.58-6.59 75.42-6.47 76.27-6.35 77.44-6.35L77.44-6.35Q77.37-6.05 77.29-5.74 77.22-5.42 77.17-5.02 77.12-4.61 77.08-4.09 77.05-3.56 77.05-2.86L77.05-2.86Q77.05-2.15 77.13-1.32 77.22-0.49 77.44 0L77.44 0Q76.68-0.12 75.64-0.23 74.61-0.34 73.42-0.43 72.24-0.51 70.96-0.56 69.68-0.61 68.43-0.61L68.43-0.61Q67.43-0.61 66.37-0.57 65.31-0.54 64.3-0.45 63.3-0.37 62.44-0.26 61.57-0.15 60.98 0L60.98 0Q61.06-0.29 61.12-0.68 61.18-1.07 61.22-1.54 61.25-2 61.28-2.49 61.3-2.98 61.3-3.42L61.3-3.42Q61.3-3.66 61.28-4.08 61.25-4.49 61.22-4.92 61.18-5.35 61.12-5.74 61.06-6.13 60.98-6.35L60.98-6.35Q61.81-6.35 62.36-6.43 62.91-6.52 63.25-6.81 63.6-7.1 63.74-7.68 63.89-8.25 63.89-9.2L63.89-9.2 63.89-14.28Q63.89-15.23 63.69-16.09 63.5-16.94 63.1-17.59 62.69-18.24 62.06-18.62 61.42-18.99 60.52-18.99L60.52-18.99Q59.91-18.99 58.9-18.79 57.88-18.58 56.89-18.08 55.91-17.58 55.19-16.74 54.47-15.89 54.47-14.65L54.47-14.65 54.44-14.65 54.47-9.2Q54.47-7.62 55.44-6.98 56.42-6.35 58.18-6.35L58.18-6.35Q58.03-5.83 57.94-5.08 57.86-4.32 57.86-3.47L57.86-3.47Q57.86-2.54 57.93-1.6 58.01-0.66 58.18 0L58.18 0Q56.61-0.24 54.47-0.43 52.32-0.61 49.22-0.61L49.22-0.61Q48.04-0.61 46.81-0.57 45.58-0.54 44.44-0.45 43.31-0.37 42.33-0.26 41.35-0.15 40.72 0ZM80.78-3.59L80.78-3.59Q81.1-4.15 81.25-4.88 81.39-5.62 81.39-6.37L81.39-6.37Q81.39-7.15 81.22-7.93 81.05-8.72 80.78-9.2L80.78-9.2Q81.44-9.42 81.97-9.91 82.49-10.4 82.87-11.01 83.25-11.62 83.49-12.26 83.74-12.89 83.81-13.43L83.81-13.43Q83.93-13.38 84.08-13.38 84.22-13.38 84.39-13.38L84.39-13.38Q86.2-13.38 88.76-13.72 91.33-14.06 94.31-14.62L94.31-14.62Q95.7-14.89 96.6-15.28 97.5-15.67 98.04-16.17 98.58-16.67 98.79-17.26 98.99-17.85 98.99-18.51L98.99-18.51Q98.99-19.7 98.4-20.35 97.8-21 96.33-21L96.33-21Q94.4-21 93.49-20.03 92.57-19.07 92.57-16.87L92.57-16.87Q91.77-17.07 90.62-17.15 89.47-17.24 88.08-17.24L88.08-17.24Q87.37-17.24 86.65-17.21 85.93-17.19 85.25-17.15 84.57-17.11 83.98-17.04 83.39-16.97 82.98-16.87L82.98-16.87Q83.12-17.63 83.23-18.58 83.34-19.53 83.34-20.8L83.34-20.8Q83.34-21.22 83.33-21.57 83.32-21.92 83.28-22.27 83.25-22.61 83.17-22.99 83.1-23.36 82.98-23.83L82.98-23.83Q84-23.83 85.22-24.04 86.45-24.24 87.6-24.58 88.76-24.93 89.72-25.39 90.67-25.85 91.18-26.37L91.18-26.37Q91.62-26.15 92.04-25.99 92.45-25.83 92.99-25.72 93.53-25.61 94.23-25.56 94.94-25.51 95.94-25.51L95.94-25.51Q98.24-25.51 99.86-25.74 101.48-25.98 102.19-26.37L102.19-26.37Q102.58-25.63 103.32-24.98 104.05-24.32 104.91-23.84 105.78-23.36 106.67-23.08 107.56-22.8 108.3-22.8L108.3-22.8 108.52-22.8Q108.3-22.27 108.15-21.31 108-20.36 107.91-19.18 107.81-17.99 107.76-16.67 107.71-15.36 107.67-14.07 107.64-12.79 107.64-11.67 107.64-10.55 107.64-9.77L107.64-9.77Q107.64-8.76 107.81-8.14 107.98-7.52 108.48-7.18 108.98-6.84 109.89-6.71 110.81-6.59 112.28-6.59L112.28-6.59Q112.18-6.3 112.09-5.87 112.01-5.44 111.93-4.96 111.86-4.47 111.82-3.98 111.79-3.49 111.79-3.08L111.79-3.08Q111.79-1.17 112.28 0L112.28 0Q111.69-0.27 110.37-0.44 109.05-0.61 107.49-0.61L107.49-0.61Q105.73-0.61 104.38-0.44 103.02-0.27 102.24 0L102.24 0Q102.05-1.34 101.5-2.15 100.95-2.95 100.39-3.42L100.39-3.42Q99.53-3.15 98.82-2.7 98.12-2.25 97.57-1.72 97.02-1.2 96.67-0.67 96.33-0.15 96.24 0.24L96.24 0.24Q95.67 0.1 95.22-0.05 94.77-0.2 94.31-0.33 93.84-0.46 93.31-0.54 92.77-0.61 92.04-0.61L92.04-0.61Q91.28-0.61 90.44-0.54 89.59-0.46 88.76-0.33 87.93-0.2 87.21-0.05 86.49 0.1 85.98 0.24L85.98 0.24Q85.57-0.44 84.96-1.11 84.35-1.78 83.65-2.33 82.95-2.88 82.21-3.22 81.46-3.56 80.78-3.59ZM91.28-8.13L91.28-8.13Q91.28-7.54 91.52-7.09 91.77-6.64 92.15-6.34 92.52-6.03 92.99-5.87 93.45-5.71 93.89-5.71L93.89-5.71Q94.7-5.71 95.54-6.03 96.38-6.35 97.09-7.04 97.8-7.74 98.29-8.86 98.77-9.99 98.87-11.6L98.87-11.6Q96.77-11.55 95.32-11.32 93.87-11.08 92.96-10.66 92.06-10.23 91.67-9.59 91.28-8.96 91.28-8.13ZM119.67 4.2L119.72 2.27Q119.72 0.56 119.66-0.89 119.6-2.34 119.43-3.42 119.26-4.49 118.95-5.16 118.64-5.83 118.13-6.01L118.13-6.01Q118.62-6.25 118.93-6.81 119.23-7.37 119.41-8.5 119.6-9.62 119.66-11.43 119.72-13.23 119.72-15.99L119.72-15.99Q119.69-17.04 119.45-17.66 119.21-18.29 118.78-18.62 118.35-18.95 117.73-19.06 117.11-19.17 116.33-19.17L116.33-19.17 115.57-19.17Q115.76-19.65 115.91-20.52 116.06-21.39 116.06-22.34L116.06-22.34Q116.06-23.27 115.92-24.11 115.79-24.95 115.57-25.46L115.57-25.46Q116.28-25.37 117.07-25.32 117.86-25.27 118.72-25.27L118.72-25.27Q120.48-25.27 122.28-25.51 124.09-25.76 125.65-26.37L125.65-26.37Q125.72-25.27 126.24-24.22 126.75-23.17 127.56-22.29L127.56-22.29Q128.14-22.53 128.75-22.92 129.36-23.32 129.91-23.84 130.46-24.37 130.9-25 131.34-25.63 131.56-26.37L131.56-26.37Q131.83-26.2 132.35-26.05 132.88-25.9 133.57-25.78 134.27-25.66 135.06-25.59 135.86-25.51 136.66-25.51L136.66-25.51Q138.2-25.51 139.47-25.73 140.74-25.95 141.35-26.37L141.35-26.37Q141.76-25.49 142.5-24.62 143.23-23.75 144.22-23.03 145.21-22.31 146.42-21.83 147.62-21.34 148.99-21.24L148.99-21.24Q148.7-20.61 148.32-18.65 147.94-16.7 147.94-13.26L147.94-13.26Q147.94-9.79 148.32-7.84 148.7-5.88 148.99-5.25L148.99-5.25Q147.62-5.15 146.42-4.6 145.21-4.05 144.22-3.26 143.23-2.47 142.5-1.54 141.76-0.61 141.35 0.24L141.35 0.24Q140.81-0.1 139.7-0.35 138.59-0.61 137.1-0.61L137.1-0.61Q135.56-0.61 134.34-0.35 133.12-0.1 132.54 0.24L132.54 0.24Q132.24-0.61 131.24-1.5 130.24-2.39 128.53-3.1L128.53-3.1 128.53 4.2Q128.53 5.08 129.11 5.64 129.68 6.2 130.67 6.51 131.66 6.81 132.94 6.93 134.22 7.06 135.66 7.06L135.66 7.06Q135.51 7.57 135.43 8.33 135.34 9.08 135.34 9.94L135.34 9.94Q135.34 10.86 135.42 11.82 135.49 12.77 135.66 13.43L135.66 13.43Q134.88 13.31 133.59 13.2 132.29 13.09 130.73 12.99 129.17 12.89 127.48 12.84 125.8 12.79 124.26 12.79L124.26 12.79Q123.09 12.79 121.82 12.84 120.55 12.89 119.37 12.96 118.18 13.04 117.17 13.16 116.15 13.28 115.52 13.43L115.52 13.43Q115.72 12.79 115.79 11.9 115.86 11.01 115.86 10.16L115.86 10.16Q115.86 9.38 115.76 8.59 115.67 7.81 115.52 7.06L115.52 7.06Q116.62 7.06 117.4 6.93 118.18 6.81 118.69 6.51 119.21 6.2 119.44 5.64 119.67 5.08 119.67 4.2L119.67 4.2ZM128.87-13.23L128.87-13.23Q128.87-11.69 129.09-10.39 129.31-9.08 129.85-8.13 130.39-7.18 131.3-6.64 132.22-6.1 133.64-6.1L133.64-6.1Q134.98-6.1 135.91-6.52 136.83-6.93 137.42-7.8 138.01-8.67 138.26-10.01 138.52-11.35 138.52-13.23L138.52-13.23Q138.52-15.11 138.26-16.44 138.01-17.77 137.42-18.63 136.83-19.48 135.91-19.87 134.98-20.26 133.64-20.26L133.64-20.26Q132.22-20.26 131.3-19.74 130.39-19.21 129.85-18.27 129.31-17.33 129.09-16.05 128.87-14.77 128.87-13.23ZM152.9-28.93L152.9-28.93Q153.04-29.2 153.18-29.74 153.31-30.27 153.4-30.98 153.48-31.69 153.54-32.51 153.6-33.33 153.6-34.18L153.6-34.18Q153.6-34.96 153.54-35.71 153.48-36.45 153.38-37.1 153.29-37.74 153.15-38.26 153.02-38.77 152.87-39.06L152.87-39.06Q153.31-38.92 154.03-38.78 154.75-38.65 155.64-38.55 156.53-38.45 157.52-38.39 158.51-38.33 159.46-38.33L159.46-38.33Q160.34-38.33 161.38-38.37 162.42-38.4 163.38-38.5 164.35-38.6 165.13-38.73 165.91-38.87 166.3-39.06L166.3-39.06Q166.15-38.75 166.04-38.23 165.93-37.72 165.85-37.07 165.76-36.43 165.72-35.68 165.69-34.94 165.69-34.18L165.69-34.18Q165.69-33.4 165.72-32.64 165.76-31.88 165.85-31.19 165.93-30.49 166.04-29.91 166.15-29.32 166.3-28.93L166.3-28.93Q165.91-29.05 165.16-29.14 164.42-29.22 163.48-29.28 162.54-29.35 161.51-29.38 160.49-29.42 159.54-29.42L159.54-29.42Q158.58-29.42 157.58-29.38 156.58-29.35 155.67-29.28 154.75-29.22 154.02-29.14 153.29-29.05 152.9-28.93ZM150.94 0L150.94 0Q151.14-0.63 151.21-1.51 151.28-2.39 151.28-3.25L151.28-3.25Q151.28-4.03 151.19-4.81 151.09-5.59 150.94-6.35L150.94-6.35Q152.31-6.35 153.35-6.47 154.38-6.59 155.08-6.9 155.78-7.2 156.13-7.76 156.48-8.33 156.48-9.2L156.48-9.2 156.48-15.99Q156.46-17.04 156.11-17.66 155.75-18.29 155.17-18.62 154.58-18.95 153.81-19.06 153.04-19.17 152.19-19.17L152.19-19.17 151.41-19.17Q151.6-19.65 151.75-20.52 151.89-21.39 151.89-22.34L151.89-22.34Q151.89-23.27 151.76-24.13 151.63-25 151.41-25.51L151.41-25.51Q153.48-25.42 155.28-25.37 157.07-25.32 158.66-25.32L158.66-25.32Q161.61-25.32 163.76-25.55 165.91-25.78 167.45-26.37L167.45-26.37Q166.96-25.42 166.59-24.55 166.23-23.68 165.97-22.72 165.71-21.75 165.58-20.61 165.44-19.46 165.44-17.97L165.44-17.97 165.42-9.2Q165.42-8.33 165.8-7.76 166.18-7.2 166.84-6.9 167.49-6.59 168.4-6.47 169.3-6.35 170.35-6.35L170.35-6.35Q170.2-5.83 170.12-5.08 170.03-4.32 170.03-3.47L170.03-3.47Q170.03-2.54 170.09-1.6 170.16-0.66 170.35 0L170.35 0Q169.69-0.12 168.54-0.23 167.4-0.34 166.04-0.43 164.69-0.51 163.21-0.56 161.73-0.61 160.41-0.61L160.41-0.61Q159.24-0.61 157.86-0.57 156.48-0.54 155.15-0.45 153.82-0.37 152.7-0.26 151.58-0.15 150.94 0ZM175.38-5.03L175.38-5.03Q176.18-6.01 176.45-7.52 176.72-9.03 176.72-11.16L176.72-11.16 176.72-18.21Q176.7-18.65 176.59-19.01 176.48-19.36 176.22-19.62 175.96-19.87 175.52-20.02 175.09-20.17 174.43-20.17L174.43-20.17Q174.06-20.17 173.63-20.12 173.21-20.07 172.67-19.97L172.67-19.97Q172.79-20.68 172.84-21.51 172.89-22.34 172.89-23.19L172.89-23.19Q172.89-23.97 172.84-24.73 172.79-25.49 172.67-26.12L172.67-26.12Q172.91-25.95 173.28-25.84 173.64-25.73 174.01-25.66 174.38-25.59 174.69-25.55 175.01-25.51 175.18-25.51L175.18-25.51Q175.89-25.51 176.24-26.06 176.6-26.61 176.6-27.98L176.6-27.98Q176.6-28.2 176.59-28.59 176.57-28.98 176.55-29.39 176.53-29.81 176.46-30.18 176.4-30.54 176.31-30.74L176.31-30.74Q176.5-30.69 176.7-30.69 176.89-30.69 177.11-30.69L177.11-30.69Q178.36-30.69 179.74-31.1 181.12-31.52 182.42-32.01 183.73-32.5 184.85-32.91 185.97-33.33 186.71-33.33L186.71-33.33Q186.51-32.74 186.39-32.03 186.27-31.32 186.19-30.62 186.12-29.91 186.08-29.24 186.05-28.56 186.05-28.1L186.05-28.1Q186.05-27.29 186.24-26.79 186.44-26.29 186.94-26.01 187.44-25.73 188.33-25.62 189.22-25.51 190.61-25.51L190.61-25.51Q191.2-25.51 191.99-25.52 192.79-25.54 193.64-25.6 194.49-25.66 195.34-25.78 196.18-25.9 196.89-26.12L196.89-26.12Q196.64-25.49 196.55-24.63 196.45-23.78 196.45-22.88L196.45-22.88Q196.45-21.85 196.55-20.97 196.64-20.09 196.89-19.41L196.89-19.41Q196.06-19.48 195.07-19.58 194.08-19.68 193.1-19.76 192.13-19.85 191.3-19.91 190.47-19.97 189.95-19.97L189.95-19.97Q188.73-19.97 187.94-19.86 187.15-19.75 186.68-19.52 186.22-19.29 186.03-18.93 185.85-18.58 185.85-18.12L185.85-18.12 185.85-11.57Q185.85-10.62 185.96-9.56 186.07-8.5 186.36-7.59 186.66-6.69 187.17-6.09 187.68-5.49 188.49-5.49L188.49-5.49Q189.37-5.49 189.97-5.85 190.56-6.2 190.93-6.84 191.3-7.47 191.45-8.34 191.61-9.2 191.61-10.25L191.61-10.25Q192.15-10.13 193.05-10.01 193.96-9.89 194.91-9.89L194.91-9.89Q195.84-9.89 196.65-10.01 197.47-10.13 197.91-10.25L197.91-10.25Q197.72-9.72 197.63-8.75 197.55-7.79 197.55-6.69L197.55-6.69Q197.55-5.59 197.62-4.64 197.69-3.69 197.91-3.22L197.91-3.22 197.67-3.22Q196.76-3.22 195.73-2.94 194.69-2.66 193.74-2.2 192.79-1.73 191.99-1.16 191.2-0.59 190.78 0L190.78 0Q190.59-0.15 190.04-0.26 189.49-0.37 188.77-0.45 188.05-0.54 187.24-0.57 186.44-0.61 185.71-0.61L185.71-0.61Q184.97-0.61 184.18-0.57 183.39-0.54 182.63-0.45 181.87-0.37 181.25-0.26 180.63-0.15 180.26 0L180.26 0Q180.04-0.85 179.59-1.67 179.14-2.49 178.5-3.17 177.87-3.86 177.07-4.35 176.28-4.83 175.38-5.03Z" opacity="1" transform="matrix(1,0,0,1,0,0)" fill="#ffffff" class="wordmark-text-0" data-fill-palette-color="primary" id="text-0"></path></svg></g></svg></g></svg></g></svg></g><g transform="matrix(1,0,0,1,79.97960089980991,0)"><svg viewBox="0 0 84.47215820038019 84.47215820038019" height="84.47215820038019" width="84.47215820038019"><g><svg xmlns="http://www.w3.org/2000/svg" xmlns:xlink="http://www.w3.org/1999/xlink" version="1.1" x="0" y="0" viewBox="5 5 90 90" style="enable-background:new 0 0 100 100;" xml:space="preserve" height="84.47215820038019" width="84.47215820038019" class="icon-icon-0" data-fill-palette-color="accent" id="icon-0"><g fill="#cafbff" data-fill-palette-color="accent"><path d="M34.9 53.5c-2.3 0-4.6-0.9-6.3-2.6L7.6 29.9C5.9 28.2 5 26 5 23.6s0.9-4.6 2.6-6.3l9.7-9.7C19 5.9 21.2 5 23.6 5s4.6 0.9 6.3 2.6l20.9 20.9c3.5 3.5 3.5 9.2 0 12.7-1 1-2.7 1-3.8 0-1-1-1-2.7 0-3.8 0.7-0.7 1-1.6 1-2.5 0-1-0.4-1.9-1-2.5L26.1 11.4c-1.4-1.3-3.7-1.3-5.1 0l-9.7 9.7c-0.7 0.7-1 1.6-1 2.5 0 1 0.4 1.9 1 2.5l20.9 20.9c1.3 1.3 3.7 1.3 5.1 0 1-1 2.7-1 3.8 0 1 1 1 2.7 0 3.8C39.4 52.6 37.2 53.5 34.9 53.5z" fill="#ffffff" data-fill-palette-color="accent"></path></g><g fill="#cafbff" data-fill-palette-color="accent"><path d="M76.4 95c-2.4 0-4.6-0.9-6.3-2.6L49.2 71.5c-3.5-3.5-3.5-9.2 0-12.7 1-1 2.7-1 3.8 0 1 1 1 2.7 0 3.8-0.7 0.7-1 1.6-1 2.5 0 1 0.4 1.9 1 2.5l20.9 20.9c1.4 1.4 3.7 1.3 5.1 0l9.7-9.7c0.7-0.7 1-1.6 1-2.5 0-1-0.4-1.9-1-2.5L67.7 52.9c-1.3-1.3-3.7-1.4-5.1 0-1 1-2.7 1-3.8 0-1-1-1-2.7 0-3.8 3.5-3.5 9.2-3.5 12.7 0l20.9 20.9c1.7 1.7 2.6 3.9 2.6 6.3s-0.9 4.6-2.6 6.3l-9.7 9.7C81 94.1 78.8 95 76.4 95z" fill="#ffffff" data-fill-palette-color="accent"></path></g><g fill="#cafbff" data-fill-palette-color="accent"><path d="M70.4 32.3c-0.7 0-1.4-0.3-1.9-0.8-1-1-1-2.7 0-3.8l9.7-9.7c1-1 2.7-1 3.8 0 1 1 1 2.7 0 3.8l-9.7 9.7C71.7 32.1 71 32.3 70.4 32.3z" fill="#ffffff" data-fill-palette-color="accent"></path></g><g fill="#cafbff" data-fill-palette-color="accent"><path d="M91.9 40.1H78.1c-1.5 0-2.7-1.2-2.7-2.7 0-1.5 1.2-2.7 2.7-2.7h13.7c1.5 0 2.7 1.2 2.7 2.7C94.5 38.9 93.3 40.1 91.9 40.1z" fill="#ffffff" data-fill-palette-color="accent"></path></g><g fill="#cafbff" data-fill-palette-color="accent"><path d="M62.6 24.5c-1.5 0-2.7-1.2-2.7-2.7V8.1c0-1.5 1.2-2.7 2.7-2.7s2.7 1.2 2.7 2.7v13.7C65.2 23.3 64.1 24.5 62.6 24.5z" fill="#ffffff" data-fill-palette-color="accent"></path></g><g fill="#cafbff" data-fill-palette-color="accent"><path d="M20.9 81.8c-0.7 0-1.4-0.3-1.9-0.8-1-1-1-2.7 0-3.8l9.7-9.7c1-1 2.7-1 3.8 0 1 1 1 2.7 0 3.8L22.7 81C22.2 81.6 21.5 81.8 20.9 81.8z" fill="#ffffff" data-fill-palette-color="accent"></path></g><g fill="#cafbff" data-fill-palette-color="accent"><path d="M22.8 64.3H9.1c-1.5 0-2.7-1.2-2.7-2.7S7.6 59 9.1 59h13.7c1.5 0 2.7 1.2 2.7 2.7S24.3 64.3 22.8 64.3z" fill="#ffffff" data-fill-palette-color="accent"></path></g><g fill="#cafbff" data-fill-palette-color="accent"><path d="M38.3 93.6c-1.5 0-2.7-1.2-2.7-2.7V77.2c0-1.5 1.2-2.7 2.7-2.7s2.7 1.2 2.7 2.7v13.7C41 92.4 39.8 93.6 38.3 93.6z" fill="#ffffff" data-fill-palette-color="accent"></path></g></svg></g></svg></g><g></g></svg></g></svg></g></svg></g><g><path d="M130.9 32.911A112.671 112.671 0 0 1 264.62 32.911L259.155 32.911A107.206 107.206 0 0 0 136.365 32.911L130.9 32.911M130.9 214.289A112.671 112.671 0 0 0 264.62 214.289L259.155 214.289A107.206 107.206 0 0 1 136.365 214.289L130.9 214.289" fill="#ffffff" stroke="transparent" data-fill-palette-color="tertiary"></path></g></svg></g><defs></defs></svg><rect width="395.52" height="247.2" fill="none" stroke="none" visibility="hidden"></rect></g></svg></g></svg>